<svg width="66" height="66" viewBox="0 0 66 66" fill="none" xmlns="http://www.w3.org/2000/svg">
<path d="M50.875 26.125V18.325C50.875 17.2049 50.875 16.6448 50.657 16.217C50.4653 15.8407 50.1593 15.5347 49.783 15.343C49.3552 15.125 48.7951 15.125 47.675 15.125H15.575C14.4549 15.125 13.8948 15.125 13.467 15.343C13.0907 15.5347 12.7847 15.8407 12.593 16.217C12.375 16.6448 12.375 17.2049 12.375 18.325V39.425C12.375 40.5451 12.375 41.1052 12.593 41.533C12.7847 41.9093 13.0907 42.2153 13.467 42.407C13.8948 42.625 14.4549 42.625 15.575 42.625H37.125" stroke="#325E3D" stroke-linecap="round"/>
<path d="M20.625 34.375H31.625" stroke="#325E3D" stroke-linecap="round"/>
<path d="M20.625 23.375H39.875" stroke="#325E3D" stroke-linecap="round"/>
<circle cx="48.125" cy="37.125" r="6.375" stroke="#325E3D"/>
<path d="M53.625 50.875C53.625 50.875 52.25 48.125 48.125 48.125C44 48.125 42.625 50.875 42.625 50.875" stroke="#325E3D" stroke-linecap="round"/>
</svg>
